<svg width="24" height="24" viewBox="0 0 24 24" fill="none" xmlns="http://www.w3.org/2000/svg">
<path fill-rule="evenodd" clip-rule="evenodd" d="M15.7929 2.79287C17.0119 1.57393 18.9882 1.57392 20.2072 2.79287C21.4261 4.01183 21.4261 5.98814 20.2072 7.20709L7.64442 19.7698C7.62462 19.7896 7.605 19.8093 7.58554 19.8288C7.29809 20.1168 7.04466 20.3707 6.73912 20.5579C6.47071 20.7224 6.17807 20.8436 5.87196 20.9171C5.52352 21.0007 5.16477 21.0004 4.75789 21C4.73034 21 4.70257 21 4.67457 21H3.00003C2.44774 21 2.00003 20.5523 2.00003 20V18.3255C2.00003 18.2975 2 18.2697 1.99997 18.2422C1.9996 17.8353 1.99926 17.4765 2.08292 17.1281C2.15641 16.822 2.27762 16.5293 2.44211 16.2609C2.62934 15.9554 2.88325 15.7019 3.17123 15.4145C3.19073 15.395 3.21038 15.3754 3.23018 15.3556L15.7929 2.79287ZM18.7929 4.20709C18.355 3.76919 17.6451 3.76919 17.2072 4.20709L4.64439 16.7698C4.26483 17.1494 4.19484 17.2285 4.14739 17.3059C4.09256 17.3954 4.05215 17.4929 4.02766 17.595C4.00645 17.6833 4.00003 17.7887 4.00003 18.3255V19H4.67457C5.21135 19 5.31675 18.9936 5.40507 18.9724C5.50711 18.9479 5.60465 18.9075 5.69412 18.8526C5.77157 18.8052 5.85064 18.7352 6.2302 18.3556L18.7929 5.79288C19.2308 5.35497 19.2308 4.64499 18.7929 4.20709ZM21.6747 17.2619C22.0823 17.6345 22.1107 18.2671 21.7381 18.6747L20.738 19.7687C20.0284 20.5448 19.0458 21 18.0002 21C16.9548 21 15.9725 20.5451 15.263 19.7694C14.911 19.3862 14.4548 19.1901 14.0002 19.1901C13.5453 19.1901 13.0888 19.3864 12.7368 19.7701C12.3635 20.177 11.7309 20.2043 11.3239 19.8309C10.917 19.4575 10.8898 18.8249 11.2632 18.418C11.9735 17.6438 12.9555 17.1901 14.0002 17.1901C15.0449 17.1901 16.0269 17.6438 16.7373 18.418L16.7384 18.4192C17.0896 18.8034 17.5457 19 18.0002 19C18.4545 19 18.9106 18.8034 19.2618 18.4193V18.4193L20.2619 17.3253C20.6345 16.9177 21.2671 16.8893 21.6747 17.2619Z" fill="#151515"/>
<path d="M17.2072 4.20709C17.6451 3.76919 18.355 3.76919 18.7929 4.20709C19.2308 4.64499 19.2308 5.35497 18.7929 5.79288L6.2302 18.3556C5.85064 18.7352 5.77157 18.8052 5.69412 18.8526C5.60465 18.9075 5.50711 18.9479 5.40507 18.9724C5.31675 18.9936 5.21135 19 4.67457 19H4.00003V18.3255C4.00003 17.7887 4.00645 17.6833 4.02766 17.595C4.05215 17.4929 4.09256 17.3954 4.14739 17.3059C4.19484 17.2285 4.26483 17.1494 4.64439 16.7698L17.2072 4.20709Z" fill="#151515"/>
</svg>
