<svg width="24" height="24" viewBox="0 0 24 24" fill="none" xmlns="http://www.w3.org/2000/svg">
<path d="M18 10.0001L14 6.00006M2.49997 21.5001L5.88434 21.124C6.29783 21.0781 6.50458 21.0551 6.69782 20.9925C6.86926 20.937 7.03242 20.8586 7.18286 20.7594C7.35243 20.6476 7.49952 20.5005 7.7937 20.2063L21 7.00006C22.1046 5.89549 22.1046 4.10463 21 3.00006C19.8954 1.89549 18.1046 1.89549 17 3.00006L3.7937 16.2063C3.49952 16.5005 3.35243 16.6476 3.24061 16.8172C3.14141 16.9676 3.06299 17.1308 3.00749 17.3022C2.94493 17.4955 2.92196 17.7022 2.87601 18.1157L2.49997 21.5001Z" stroke="#151515" stroke-width="2" stroke-linecap="round" stroke-linejoin="round"/>
</svg>
