<svg width="24" height="24" viewBox="0 0 24 24" fill="none" xmlns="http://www.w3.org/2000/svg">
<path d="M4.50081 16.9134L14 7.41427L16.5858 10.0001L7.08659 19.4992C6.76409 19.8217 6.69755 19.8816 6.63235 19.9246C6.55713 19.9742 6.47555 20.0134 6.38983 20.0412C6.31553 20.0652 6.22721 20.0798 5.77391 20.1301L3.6319 20.3681L3.8699 18.2261C3.92026 17.7728 3.93482 17.6845 3.95888 17.6102C3.98663 17.5245 4.02583 17.4429 4.07544 17.3677C4.11843 17.3025 4.1783 17.2359 4.50081 16.9134Z" fill="#151515"/>
<path d="M18 8.58584L15.4142 6.00006L17.7071 3.70716C18.4212 2.99312 19.5788 2.99312 20.2929 3.70717C21.0069 4.42121 21.0069 5.57891 20.2929 6.29295L18 8.58584Z" fill="#151515"/>
</svg>
