<svg width="24" height="24" viewBox="0 0 24 24" fill="none" xmlns="http://www.w3.org/2000/svg">
<path fill-rule="evenodd" clip-rule="evenodd" d="M11.9928 3.71703C9.65286 1.67214 6.1924 1.25369 3.5051 3.54978C0.598307 6.0334 0.175977 10.2162 2.4746 13.1741C3.34712 14.2968 5.05011 15.9836 6.68673 17.5284C8.3425 19.0912 9.99445 20.568 10.8091 21.2895L10.8246 21.3032C10.9012 21.3711 10.9966 21.4557 11.088 21.5245C11.1974 21.6069 11.3545 21.7092 11.5643 21.7718C11.8433 21.855 12.1431 21.855 12.422 21.7718C12.6318 21.7092 12.7889 21.6069 12.8983 21.5245C12.9897 21.4557 13.0851 21.3711 13.1617 21.3032L13.1772 21.2895C13.9919 20.568 15.6438 19.0912 17.2996 17.5284C18.9362 15.9836 20.6392 14.2968 21.5117 13.1741C23.8015 10.2276 23.4444 6.0125 20.4708 3.54101C17.7536 1.28258 14.33 1.67136 11.9928 3.71703ZM11.2332 5.78587C9.52816 3.7925 6.81788 3.34987 4.80429 5.07033C2.70098 6.86745 2.41796 9.84183 4.0538 11.9468C4.81689 12.9288 6.40669 14.5138 8.05954 16.0739C9.60258 17.5304 11.1461 18.9146 11.9932 19.6664C12.8402 18.9146 14.3837 17.5304 15.9268 16.0739C17.5796 14.5138 19.1694 12.9288 19.9325 11.9468C21.5772 9.83046 21.315 6.84332 19.1924 5.0791C17.1255 3.36117 14.4506 3.80131 12.7531 5.78587C12.5631 6.00798 12.2854 6.13586 11.9932 6.13586C11.7009 6.13586 11.4232 6.00798 11.2332 5.78587Z" fill="#151515"/>
<path d="M4.80429 5.07033C6.81788 3.34987 9.52816 3.7925 11.2332 5.78587C11.4232 6.00798 11.7009 6.13586 11.9932 6.13586C12.2854 6.13586 12.5631 6.00798 12.7531 5.78587C14.4506 3.80131 17.1255 3.36117 19.1924 5.0791C21.315 6.84332 21.5772 9.83046 19.9325 11.9468C19.1694 12.9288 17.5796 14.5138 15.9268 16.0739C14.3837 17.5304 12.8402 18.9146 11.9932 19.6664C11.1461 18.9146 9.60258 17.5304 8.05954 16.0739C6.40669 14.5138 4.81689 12.9288 4.0538 11.9468C2.41796 9.84183 2.70098 6.86745 4.80429 5.07033Z" fill="#151515"/>
</svg>
