<svg width="24" height="24" viewBox="0 0 24 24" fill="none" xmlns="http://www.w3.org/2000/svg">
<path fill-rule="evenodd" clip-rule="evenodd" d="M8 17V18H7C6.44772 18 6 18.4477 6 19V20H4.6C4.30347 20 4.14122 19.9992 4.02463 19.9897L4.01145 19.9885L4.0103 19.9754C4.00078 19.8588 4 19.6965 4 19.4V17.6627C4 17.5317 4.00024 17.4664 4.00241 17.4189L4.00258 17.4153L4.005 17.4126C4.03704 17.3775 4.0831 17.3311 4.17574 17.2385L9.28624 12.128L9.33885 12.0756C9.51925 11.8963 9.73868 11.6783 9.87759 11.4298C10.0081 11.1964 10.0738 11.0019 10.1116 10.7372C10.1393 10.5438 10.1258 10.3555 10.1124 10.2165C10.0984 10.072 10.0744 9.89344 10.0473 9.6916L10.0449 9.67379C10.0153 9.45388 10 9.22899 10 9C10 6.23858 12.2386 4 15 4C17.7614 4 20 6.23858 20 9C20 11.7614 17.7614 14 15 14C14.771 14 14.5461 13.9847 14.3262 13.9551L14.3084 13.9527C14.1066 13.9256 13.928 13.9016 13.7835 13.8876C13.6445 13.8742 13.4562 13.8607 13.2628 13.8884C12.9981 13.9262 12.8036 13.9919 12.5702 14.1224C12.3217 14.2613 12.1037 14.4807 11.9244 14.6611L11.872 14.7138L10.5858 16H9C8.44772 16 8 16.4477 8 17ZM14 7C14 6.44772 14.4477 6 15 6C15.7662 6 16.5357 6.29309 17.1213 6.87868C17.7069 7.46425 18 8.23372 18 8.99991C18 9.5522 17.5523 9.99993 17 9.99994C16.4477 9.99996 16 9.55226 16 8.99997C16 8.74251 15.9026 8.48834 15.7071 8.29289C15.5116 8.09743 15.2575 8 15 8C14.4477 8 14 7.55228 14 7Z" fill="#151515"/>
<path fill-rule="evenodd" clip-rule="evenodd" d="M15 2C11.134 2 8 5.13401 8 9C8 9.31836 8.02132 9.63227 8.06273 9.94028C8.09298 10.1653 8.11174 10.3061 8.12165 10.4087C8.12341 10.427 8.12466 10.442 8.12555 10.4541L8.11665 10.464C8.06794 10.5175 7.99795 10.5878 7.87203 10.7138L2.76152 15.8243L2.72537 15.8603C2.59072 15.9942 2.42117 16.1629 2.29472 16.3692C2.18506 16.5482 2.10425 16.7432 2.05526 16.9473C1.99876 17.1827 1.9994 17.4218 1.99991 17.6117L2 17.6627L2 19.4319C1.99997 19.6843 1.99994 19.9301 2.01695 20.1382C2.03562 20.3668 2.07969 20.6366 2.21799 20.908C2.40973 21.2843 2.7157 21.5903 3.09202 21.782C3.36344 21.9203 3.63318 21.9644 3.86177 21.9831C4.06992 22.0001 4.31571 22 4.56808 22L7 22C7.55228 22 8 21.5523 8 21V20H9C9.55228 20 10 19.5523 10 19V18H11C11.2652 18 11.5196 17.8946 11.7071 17.7071L13.2862 16.128C13.4122 16.0021 13.4825 15.9321 13.536 15.8833L13.5459 15.8745C13.558 15.8753 13.573 15.8766 13.5913 15.8784C13.6939 15.8883 13.8347 15.907 14.0597 15.9373C14.3677 15.9787 14.6816 16 15 16C18.866 16 22 12.866 22 9C22 5.13401 18.866 2 15 2ZM8 17V18H7C6.44772 18 6 18.4477 6 19V20H4.6C4.30347 20 4.14122 19.9992 4.02463 19.9897L4.01145 19.9885L4.0103 19.9754C4.00078 19.8588 4 19.6965 4 19.4V17.6627C4 17.5317 4.00024 17.4664 4.00241 17.4189L4.00258 17.4153L4.005 17.4126C4.03704 17.3775 4.0831 17.3311 4.17574 17.2385L9.28624 12.128L9.33885 12.0756C9.51925 11.8963 9.73868 11.6783 9.87759 11.4298C10.0081 11.1964 10.0738 11.0019 10.1116 10.7372C10.1393 10.5438 10.1258 10.3555 10.1124 10.2165C10.0984 10.072 10.0744 9.89344 10.0473 9.6916L10.0449 9.67379C10.0153 9.45388 10 9.22899 10 9C10 6.23858 12.2386 4 15 4C17.7614 4 20 6.23858 20 9C20 11.7614 17.7614 14 15 14C14.771 14 14.5461 13.9847 14.3262 13.9551L14.3084 13.9527C14.1066 13.9256 13.928 13.9016 13.7835 13.8876C13.6445 13.8742 13.4562 13.8607 13.2628 13.8884C12.9981 13.9262 12.8036 13.9919 12.5702 14.1224C12.3217 14.2613 12.1037 14.4807 11.9244 14.6611L11.872 14.7138L10.5858 16H9C8.44772 16 8 16.4477 8 17Z" fill="#151515"/>
</svg>
