<svg width="24" height="24" viewBox="0 0 24 24" fill="none" xmlns="http://www.w3.org/2000/svg">
<path d="M5.36252 12.0523C4.01004 11.5711 3.3338 11.3304 3.13232 10.9655C2.95772 10.6492 2.94956 10.2673 3.11048 9.94388C3.29618 9.57063 3.96151 9.30132 5.29219 8.76272L17.8348 3.68594C19.1454 3.15547 19.8007 2.89024 20.2146 3.02623C20.574 3.14427 20.8558 3.42608 20.9738 3.7854C21.1098 4.19937 20.8446 4.85465 20.3141 6.16521L15.2373 18.7078C14.6987 20.0385 14.4294 20.7039 14.0562 20.8896C13.7327 21.0505 13.3508 21.0423 13.0346 20.8677C12.6696 20.6662 12.429 19.99 11.9477 18.6375L10.4744 14.4967C10.3807 14.2336 10.3339 14.102 10.2575 13.9922C10.1897 13.8948 10.1052 13.8103 10.0079 13.7426C9.89799 13.6661 9.76643 13.6193 9.50331 13.5257L5.36252 12.0523Z" stroke="#151515" stroke-width="2" stroke-linecap="round" stroke-linejoin="round"/>
</svg>
