<svg width="24" height="24" viewBox="0 0 24 24" fill="none" xmlns="http://www.w3.org/2000/svg">
<path fill-rule="evenodd" clip-rule="evenodd" d="M6.09202 11.218C6.24842 11.1383 6.47262 11.0734 6.91104 11.0376C7.36113 11.0008 7.94342 11 8.8 11H15.2C16.0566 11 16.6389 11.0008 17.089 11.0376C17.5274 11.0734 17.7516 11.1383 17.908 11.218C18.2843 11.4097 18.5903 11.7157 18.782 12.092C18.8617 12.2484 18.9266 12.4726 18.9624 12.911C18.9992 13.3611 19 13.9434 19 14.8V16.2C19 17.0566 18.9992 17.6389 18.9624 18.089C18.9266 18.5274 18.8617 18.7516 18.782 18.908C18.5903 19.2843 18.2843 19.5903 17.908 19.782C17.7516 19.8617 17.5274 19.9266 17.089 19.9624C16.6389 19.9992 16.0566 20 15.2 20H8.8C7.94342 20 7.36113 19.9992 6.91104 19.9624C6.47262 19.9266 6.24842 19.8617 6.09202 19.782C5.7157 19.5903 5.40973 19.2843 5.21799 18.908C5.1383 18.7516 5.07337 18.5274 5.03755 18.089C5.00078 17.6389 5 17.0566 5 16.2V14.8C5 13.9434 5.00078 13.3611 5.03755 12.911C5.07337 12.4726 5.1383 12.2484 5.21799 12.092C5.40973 11.7157 5.71569 11.4097 6.09202 11.218ZM12 13.5C12.5523 13.5 13 13.9477 13 14.5V16.5C13 17.0523 12.5523 17.5 12 17.5C11.4477 17.5 11 17.0523 11 16.5V14.5C11 13.9477 11.4477 13.5 12 13.5Z" fill="#151515"/>
<path fill-rule="evenodd" clip-rule="evenodd" d="M12 2C8.68629 2 6 4.68629 6 8V9.15032C5.71739 9.21225 5.44614 9.30243 5.18404 9.43597C4.43139 9.81947 3.81947 10.4314 3.43597 11.184C3.18868 11.6694 3.09012 12.1861 3.04419 12.7482C2.99998 13.2894 2.99999 13.9537 3 14.7587V16.2413C2.99999 17.0463 2.99998 17.7106 3.04419 18.2518C3.09012 18.8139 3.18868 19.3306 3.43597 19.816C3.81947 20.5686 4.43139 21.1805 5.18404 21.564C5.66937 21.8113 6.18608 21.9099 6.74817 21.9558C7.28936 22 7.95372 22 8.75868 22H15.2413C16.0463 22 16.7106 22 17.2518 21.9558C17.8139 21.9099 18.3306 21.8113 18.816 21.564C19.5686 21.1805 20.1805 20.5686 20.564 19.816C20.8113 19.3306 20.9099 18.8139 20.9558 18.2518C21 17.7106 21 17.0463 21 16.2413V14.7587C21 13.9537 21 13.2894 20.9558 12.7482C20.9099 12.1861 20.8113 11.6694 20.564 11.184C20.1805 10.4314 19.5686 9.81947 18.816 9.43597C18.5539 9.30243 18.2826 9.21225 18 9.15032V8C18 4.68629 15.3137 2 12 2ZM8.7587 9C8.49039 9 8.23771 8.99999 8 9.00163V8C8 5.79086 9.79086 4 12 4C14.2091 4 16 5.79086 16 8V9.00163C15.7623 8.99999 15.5096 9 15.2413 9H8.7587ZM6.09202 11.218C6.24842 11.1383 6.47262 11.0734 6.91104 11.0376C7.36113 11.0008 7.94342 11 8.8 11H15.2C16.0566 11 16.6389 11.0008 17.089 11.0376C17.5274 11.0734 17.7516 11.1383 17.908 11.218C18.2843 11.4097 18.5903 11.7157 18.782 12.092C18.8617 12.2484 18.9266 12.4726 18.9624 12.911C18.9992 13.3611 19 13.9434 19 14.8V16.2C19 17.0566 18.9992 17.6389 18.9624 18.089C18.9266 18.5274 18.8617 18.7516 18.782 18.908C18.5903 19.2843 18.2843 19.5903 17.908 19.782C17.7516 19.8617 17.5274 19.9266 17.089 19.9624C16.6389 19.9992 16.0566 20 15.2 20H8.8C7.94342 20 7.36113 19.9992 6.91104 19.9624C6.47262 19.9266 6.24842 19.8617 6.09202 19.782C5.7157 19.5903 5.40973 19.2843 5.21799 18.908C5.1383 18.7516 5.07337 18.5274 5.03755 18.089C5.00078 17.6389 5 17.0566 5 16.2V14.8C5 13.9434 5.00078 13.3611 5.03755 12.911C5.07337 12.4726 5.1383 12.2484 5.21799 12.092C5.40973 11.7157 5.71569 11.4097 6.09202 11.218Z" fill="#151515"/>
</svg>
