<svg width="24" height="24" viewBox="0 0 24 24" fill="none" xmlns="http://www.w3.org/2000/svg">
<path d="M6.99999 7L8.73725 5.26274C9.52928 4.47071 9.9253 4.07469 10.382 3.92632C10.7836 3.7958 11.2163 3.7958 11.618 3.92632C12.0747 4.07469 12.4707 4.47071 13.2627 5.26274L14 6.00012M9.99999 10L14 14M9.50002 18.5002C10.158 17.8422 16.6439 11.3563 20.004 7.99627C21.1086 6.89166 21.1046 5.10475 20 4.0001C18.8954 2.89541 17.1084 2.89137 16.0037 3.99603C12.6437 7.35611 6.15794 13.8419 5.4999 14.4999C3.71531 16.2843 2.64641 20.6464 2.99989 20.9999C3.35338 21.3533 7.66064 20.3396 9.50002 18.5002Z" stroke="#151515" stroke-width="2" stroke-linecap="round" stroke-linejoin="round"/>
</svg>
