<svg width="24" height="24" viewBox="0 0 24 24" fill="none" xmlns="http://www.w3.org/2000/svg">
<path fill-rule="evenodd" clip-rule="evenodd" d="M8.86288 1.29292C9.15714 1.58718 9.23841 2.03292 9.06693 2.41209C8.53036 3.59857 8.23116 4.91628 8.23116 6.30656C8.23116 11.5325 12.4676 15.7689 17.6935 15.7689C19.0838 15.7689 20.4015 15.4697 21.5879 14.9331C21.9671 14.7616 22.4128 14.8429 22.7071 15.1371C23.0014 15.4314 23.0826 15.8771 22.9112 16.2563C21.1136 20.2311 17.1124 23 12.4623 23C6.13185 23 1 17.8682 1 11.5377C1 6.88764 3.76893 2.88642 7.74371 1.08887C8.12289 0.917396 8.56862 0.998664 8.86288 1.29292ZM6.41336 4.2608C4.32688 5.99715 3 8.6131 3 11.5377C3 16.7636 7.23642 21 12.4623 21C15.3869 21 18.0029 19.6732 19.7392 17.5867C19.0751 17.7064 18.3913 17.7689 17.6935 17.7689C11.363 17.7689 6.23116 12.637 6.23116 6.30656C6.23116 5.6087 6.29363 4.92496 6.41336 4.2608Z" fill="#151515"/>
<path d="M3 11.5377C3 8.6131 4.32688 5.99715 6.41336 4.2608C6.29363 4.92496 6.23116 5.6087 6.23116 6.30656C6.23116 12.637 11.363 17.7689 17.6935 17.7689C18.3913 17.7689 19.0751 17.7064 19.7392 17.5867C18.0029 19.6732 15.3869 21 12.4623 21C7.23642 21 3 16.7636 3 11.5377Z" fill="#151515"/>
</svg>
