<svg width="24" height="24" viewBox="0 0 24 24" fill="none" xmlns="http://www.w3.org/2000/svg">
<path fill-rule="evenodd" clip-rule="evenodd" d="M6.5 4.5C6.5 2.567 8.067 1 10 1C11.933 1 13.5 2.567 13.5 4.5V5L13.5343 5C14.2041 4.99999 14.7569 4.99998 15.2095 5.03086C15.6788 5.06288 16.1129 5.13142 16.5307 5.30448C17.5108 5.71046 18.2895 6.48915 18.6955 7.46927C18.8686 7.88708 18.9371 8.32118 18.9691 8.79046C18.9837 9.00406 18.9914 9.23999 18.9955 9.5H19.5C21.433 9.5 23 11.067 23 13C23 14.933 21.433 16.5 19.5 16.5H19V17.2413C19 18.0463 19 18.7106 18.9558 19.2518C18.9099 19.8139 18.8113 20.3306 18.564 20.816C18.1805 21.5686 17.5686 22.1805 16.816 22.564C16.3306 22.8113 15.8139 22.9099 15.2518 22.9558C14.7106 23 14.0463 23 13.2413 23H12.5C11.9477 23 11.5 22.5523 11.5 22V20.25C11.5 19.5596 10.9404 19 10.25 19C9.55964 19 9 19.5596 9 20.25V22C9 22.5523 8.55228 23 8 23H6.75868C5.95372 23 5.28936 23 4.74817 22.9558C4.18608 22.9099 3.66937 22.8113 3.18404 22.564C2.43139 22.1805 1.81947 21.5686 1.43597 20.816C1.18868 20.3306 1.09012 19.8139 1.04419 19.2518C0.999976 18.7106 0.999987 18.0463 0.999999 17.2413L1 15.5C1 14.9477 1.44772 14.5 2 14.5H3.5C4.32843 14.5 5 13.8284 5 13C5 12.1716 4.32843 11.5 3.5 11.5H2C1.44772 11.5 1 11.0523 1 10.5L1 10.4657C0.999991 9.79594 0.999984 9.24307 1.03086 8.79046C1.06288 8.32118 1.13142 7.88708 1.30448 7.46927C1.71046 6.48915 2.48915 5.71046 3.46927 5.30448C3.88708 5.13142 4.32118 5.06288 4.79046 5.03086C5.24307 4.99998 5.79594 4.99999 6.46573 5L6.5 5L6.5 4.5ZM10 3C9.17157 3 8.5 3.67157 8.5 4.5V6C8.5 6.55228 8.05228 7 7.5 7H6.5C5.78741 7 5.30304 7.00054 4.9266 7.02623C4.55915 7.0513 4.36813 7.09694 4.23463 7.15224C3.74458 7.35523 3.35523 7.74458 3.15224 8.23463C3.09694 8.36813 3.0513 8.55915 3.02623 8.9266C3.01486 9.09314 3.00842 9.2808 3.00477 9.5H3.5C5.433 9.5 7 11.067 7 13C7 14.933 5.433 16.5 3.5 16.5H3V17.2C3 18.0566 3.00078 18.6389 3.03755 19.089C3.07337 19.5274 3.1383 19.7516 3.21799 19.908C3.40973 20.2843 3.7157 20.5903 4.09202 20.782C4.24842 20.8617 4.47262 20.9266 4.91104 20.9624C5.36113 20.9992 5.94342 21 6.8 21H7V20.25C7 18.4551 8.45507 17 10.25 17C12.0449 17 13.5 18.4551 13.5 20.25V20.9999C14.196 20.9993 14.6935 20.9948 15.089 20.9624C15.5274 20.9266 15.7516 20.8617 15.908 20.782C16.2843 20.5903 16.5903 20.2843 16.782 19.908C16.8617 19.7516 16.9266 19.5274 16.9624 19.089C16.9992 18.6389 17 18.0566 17 17.2V15.5C17 14.9477 17.4477 14.5 18 14.5H19.5C20.3284 14.5 21 13.8284 21 13C21 12.1716 20.3284 11.5 19.5 11.5H18C17.4477 11.5 17 11.0523 17 10.5C17 9.78741 16.9995 9.30304 16.9738 8.9266C16.9487 8.55915 16.9031 8.36813 16.8478 8.23463C16.6448 7.74458 16.2554 7.35523 15.7654 7.15224C15.6319 7.09694 15.4409 7.0513 15.0734 7.02623C14.697 7.00054 14.2126 7 13.5 7H12.5C11.9477 7 11.5 6.55228 11.5 6V4.5C11.5 3.67157 10.8284 3 10 3Z" fill="#151515"/>
<path d="M8.5 4.5C8.5 3.67157 9.17157 3 10 3C10.8284 3 11.5 3.67157 11.5 4.5V6C11.5 6.55228 11.9477 7 12.5 7H13.5C14.2126 7 14.697 7.00054 15.0734 7.02623C15.4409 7.0513 15.6319 7.09694 15.7654 7.15224C16.2554 7.35523 16.6448 7.74458 16.8478 8.23463C16.9031 8.36813 16.9487 8.55915 16.9738 8.9266C16.9995 9.30304 17 9.78741 17 10.5C17 11.0523 17.4477 11.5 18 11.5H19.5C20.3284 11.5 21 12.1716 21 13C21 13.8284 20.3284 14.5 19.5 14.5H18C17.4477 14.5 17 14.9477 17 15.5V17.2C17 18.0566 16.9992 18.6389 16.9624 19.089C16.9266 19.5274 16.8617 19.7516 16.782 19.908C16.5903 20.2843 16.2843 20.5903 15.908 20.782C15.7516 20.8617 15.5274 20.9266 15.089 20.9624C14.6935 20.9948 14.196 20.9993 13.5 20.9999V20.25C13.5 18.4551 12.0449 17 10.25 17C8.45507 17 7 18.4551 7 20.25V21H6.8C5.94342 21 5.36113 20.9992 4.91104 20.9624C4.47262 20.9266 4.24842 20.8617 4.09202 20.782C3.7157 20.5903 3.40973 20.2843 3.21799 19.908C3.1383 19.7516 3.07337 19.5274 3.03755 19.089C3.00078 18.6389 3 18.0566 3 17.2V16.5H3.5C5.433 16.5 7 14.933 7 13C7 11.067 5.433 9.5 3.5 9.5H3.00477C3.00842 9.2808 3.01486 9.09314 3.02623 8.9266C3.0513 8.55915 3.09694 8.36813 3.15224 8.23463C3.35523 7.74458 3.74458 7.35523 4.23463 7.15224C4.36813 7.09694 4.55915 7.0513 4.9266 7.02623C5.30304 7.00054 5.78741 7 6.5 7H7.5C8.05228 7 8.5 6.55228 8.5 6V4.5Z" fill="#151515"/>
</svg>
