<svg width="24" height="24" viewBox="0 0 24 24" fill="none" xmlns="http://www.w3.org/2000/svg">
<path fill-rule="evenodd" clip-rule="evenodd" d="M20.9592 3.03868C19.2917 3.174 17.6676 3.66036 16.1949 4.47031C14.419 5.44705 12.9226 6.86189 11.8478 8.58026L11.8422 8.58924C11.1969 9.59723 10.639 10.6582 10.1747 11.7605L12.242 13.8277C13.3576 13.3645 14.4322 12.8073 15.4542 12.162C19.6794 9.3238 20.7549 5.61275 20.9592 3.03868ZM15.3413 14.551C14.5826 14.9699 13.8009 15.3464 13 15.6785V18.7053C13.0961 18.6739 13.1949 18.6401 13.2953 18.6037C14.1579 18.2908 14.8771 17.8795 15.1684 17.4446C15.3115 17.2296 15.4176 16.8976 15.4599 16.4428C15.5014 15.9961 15.4751 15.5005 15.4132 15.0203C15.3923 14.858 15.3677 14.7006 15.3413 14.551ZM12 20L12.1786 20.9839C11.8869 21.0369 11.5867 20.9577 11.3591 20.7677C11.1316 20.5777 11 20.2965 11 20V15.4142L8.58579 13H4C3.70353 13 3.42234 12.8685 3.23234 12.6409C3.04234 12.4133 2.96313 12.1131 3.01608 11.8214L4 12C3.01608 11.8214 3.01608 11.8214 3.01608 11.8214L3.01647 11.8193L3.01706 11.816L3.01889 11.8063L3.02509 11.774C3.03037 11.7469 3.03797 11.7091 3.04798 11.6616C3.06799 11.5667 3.09774 11.433 3.13801 11.2707C3.21816 10.9475 3.34183 10.5034 3.51618 10.0228C3.84064 9.12828 4.42906 7.84778 5.44398 7.16884L5.4453 7.16795C6.04029 6.77129 6.73808 6.6076 7.37214 6.54867C8.01483 6.48894 8.66795 6.53008 9.23532 6.60321C9.76092 6.67094 10.236 6.76923 10.5949 6.8551C11.8058 5.14622 13.3899 3.73052 15.2311 2.71788C17.3059 1.5767 19.6383 0.985336 22.0062 1.00002C22.5561 1.00343 23 1.45014 23 2C23 4.8103 22.2116 9.70768 17.1477 13.4166C17.2329 13.7741 17.3298 14.2447 17.3968 14.7647C17.4699 15.3321 17.5111 15.9852 17.4513 16.6279C17.3924 17.2619 17.2287 17.9597 16.8321 18.5547L16.8312 18.556C16.1522 19.5709 14.8717 20.1594 13.9772 20.4838C13.4966 20.6582 13.0525 20.7818 12.7293 20.862C12.567 20.9023 12.4333 20.932 12.3384 20.952C12.2909 20.962 12.2531 20.9696 12.226 20.9749L12.1937 20.9811L12.184 20.9829L12.1807 20.9835L12.1786 20.9839C12.1786 20.9839 12.1786 20.9839 12 20ZM9.46733 8.66191C9.04277 9.41894 8.66131 10.1995 8.32484 11H5.29467C5.32606 10.9039 5.35992 10.8051 5.39632 10.7047C5.70918 9.84223 6.12046 9.12306 6.55527 8.83168C6.77029 8.68853 7.10232 8.58237 7.55723 8.54009C8.00392 8.49857 8.49955 8.52492 8.97968 8.5868C9.1486 8.60857 9.31228 8.63429 9.46733 8.66191ZM3.85619 15.7348C4.45545 15.2301 5.21998 14.9643 6.00314 14.9885C6.78657 15.0127 7.53345 15.3254 8.10044 15.8666L8.11259 15.8784C9.301 17.0518 9.28576 18.9352 8.26473 20.1444C7.82206 20.6709 7.21239 21.0575 6.62608 21.3439C6.02789 21.636 5.38235 21.8581 4.80251 22.0239C4.21948 22.1907 3.68174 22.3066 3.2906 22.3809C3.09434 22.4182 2.93326 22.4453 2.81973 22.4633C2.76293 22.4723 2.71791 22.479 2.68622 22.4836L2.64883 22.4889L2.63797 22.4904L2.63336 22.4911C2.63336 22.4911 2.63251 22.4912 2.5 21.5C1.50882 21.3675 1.50887 21.3671 1.50887 21.3671L1.50956 21.362L1.51106 21.3512L1.51639 21.3138C1.521 21.2821 1.52774 21.2371 1.53675 21.1803C1.55474 21.0667 1.58185 20.9057 1.61912 20.7094C1.69338 20.3183 1.80929 19.7805 1.97606 19.1975C2.14192 18.6176 2.36396 17.9721 2.65615 17.3739C2.94263 16.7874 3.32942 16.1775 3.85619 15.7348ZM2.5 21.5L1.50887 21.3671C1.46758 21.676 1.57256 21.9868 1.79289 22.2071C2.01322 22.4274 2.32452 22.5324 2.63336 22.4911L2.5 21.5ZM3.77045 20.2296C3.92549 20.1911 4.08723 20.1483 4.25249 20.1011C4.76515 19.9544 5.29086 19.7702 5.74829 19.5468C6.21719 19.3177 6.54705 19.0797 6.7343 18.8568L6.73627 18.8545C7.13226 18.386 7.09896 17.6948 6.71327 17.3074C6.50366 17.1103 6.22913 16.9965 5.94131 16.9876C5.65061 16.9786 5.36682 17.0772 5.14442 17.2647L5.14319 17.2657C4.92028 17.453 4.68226 17.7828 4.45323 18.2517C4.22979 18.7091 4.04558 19.2349 3.89894 19.7475C3.85167 19.9128 3.80891 20.0745 3.77045 20.2296Z" fill="#151515"/>
<path d="M16.1949 4.47031C17.6676 3.66036 19.2917 3.174 20.9592 3.03868C20.7549 5.61275 19.6794 9.3238 15.4542 12.162C14.4322 12.8073 13.3576 13.3645 12.242 13.8277L10.1747 11.7605C10.639 10.6582 11.1969 9.59723 11.8422 8.58924L11.8478 8.58026C12.9226 6.86189 14.419 5.44705 16.1949 4.47031Z" fill="#151515"/>
</svg>
