<svg width="24" height="24" viewBox="0 0 24 24" fill="none" xmlns="http://www.w3.org/2000/svg">
<path d="M3.63051 8.36953L8.32382 3.67622C9.24954 2.75049 10.764 2.76409 11.7065 3.70659C12.649 4.64909 12.6626 6.16358 11.7369 7.08931L3.69124 15.135C2.76551 16.0607 2.7791 17.5752 3.7216 18.5177C4.6641 19.4602 6.1786 19.4738 7.10433 18.5481L15.15 10.5024C16.0757 9.57668 17.5902 9.59027 18.5327 10.5328C19.4752 11.4753 19.4896 12.989 18.5639 13.9147L15.546 16.9326C13.7671 18.7115 16.231 21.5867 18.2158 20.8364C18.7682 20.6276 20.9999 18.9985 20.9999 18.9985" stroke="#151515" stroke-width="2" stroke-linecap="round" stroke-linejoin="round"/>
</svg>
