<svg width="24" height="24" viewBox="0 0 24 24" fill="none" xmlns="http://www.w3.org/2000/svg">
<path d="M11.9995 12.8C12.9995 11.8 13.9995 11.4045 13.9995 10.3C13.9995 9.1954 13.1041 8.29997 11.9995 8.29997C11.0676 8.29997 10.2845 8.93736 10.0625 9.79997M12 15.8H12.01M19.4686 14.5313L20.8686 13.1313C21.2646 12.7353 21.4627 12.5373 21.5368 12.309C21.6021 12.1081 21.6021 11.8918 21.5368 11.691C21.4627 11.4626 21.2646 11.2646 20.8686 10.8686L19.4686 9.4686C19.2957 9.29565 19.2092 9.20917 19.1474 9.10826C19.0925 9.01878 19.0521 8.92124 19.0276 8.8192C19 8.70412 19 8.58182 19 8.33723V6.59997C19 6.03992 19 5.75989 18.891 5.54598C18.7951 5.35782 18.6422 5.20484 18.454 5.10896C18.2401 4.99997 17.9601 4.99997 17.4 4.99997H15.6627C15.4182 4.99997 15.2959 4.99997 15.1808 4.97234C15.0787 4.94784 14.9812 4.90744 14.8917 4.85261C14.7908 4.79077 14.7043 4.70429 14.5314 4.53134L13.1314 3.13134C12.7354 2.73532 12.5373 2.53732 12.309 2.46313C12.1082 2.39787 11.8918 2.39787 11.691 2.46313C11.4627 2.53732 11.2646 2.73533 10.8686 3.13134L9.46863 4.53134C9.29568 4.70429 9.2092 4.79077 9.10829 4.85261C9.01881 4.90744 8.92127 4.94784 8.81923 4.97234C8.70415 4.99997 8.58185 4.99997 8.33726 4.99997H6.6C6.03995 4.99997 5.75992 4.99997 5.54601 5.10896C5.35785 5.20484 5.20487 5.35782 5.10899 5.54598C5 5.75989 5 6.03992 5 6.59997V8.33723C5 8.58182 5 8.70412 4.97237 8.8192C4.94787 8.92124 4.90747 9.01878 4.85264 9.10826C4.7908 9.20917 4.70432 9.29565 4.53137 9.4686L3.13137 10.8686C2.73536 11.2646 2.53735 11.4626 2.46316 11.691C2.3979 11.8918 2.3979 12.1081 2.46316 12.309C2.53735 12.5373 2.73536 12.7353 3.13137 13.1313L4.53137 14.5313C4.70432 14.7043 4.7908 14.7908 4.85264 14.8917C4.90747 14.9812 4.94787 15.0787 4.97237 15.1807C5 15.2958 5 15.4181 5 15.6627V17.4C5 17.96 5 18.2401 5.10899 18.454C5.20487 18.6421 5.35785 18.7951 5.54601 18.891C5.75992 19 6.03995 19 6.6 19H8.33726C8.58185 19 8.70415 19 8.81923 19.0276C8.92127 19.0521 9.01881 19.0925 9.10829 19.1473C9.2092 19.2092 9.29568 19.2956 9.46863 19.4686L10.8686 20.8686C11.2646 21.2646 11.4627 21.4626 11.691 21.5368C11.8918 21.6021 12.1082 21.6021 12.309 21.5368C12.5373 21.4626 12.7354 21.2646 13.1314 20.8686L14.5314 19.4686C14.7043 19.2956 14.7908 19.2092 14.8917 19.1473C14.9812 19.0925 15.0787 19.0521 15.1808 19.0276C15.2959 19 15.4182 19 15.6627 19H17.4C17.9601 19 18.2401 19 18.454 18.891C18.6422 18.7951 18.7951 18.6421 18.891 18.454C19 18.2401 19 17.96 19 17.4V15.6627C19 15.4181 19 15.2958 19.0276 15.1807C19.0521 15.0787 19.0925 14.9812 19.1474 14.8917C19.2092 14.7908 19.2957 14.7043 19.4686 14.5313Z" stroke="#151515" stroke-width="2" stroke-linecap="round"/>
</svg>
