<svg width="24" height="24" viewBox="0 0 24 24" fill="none" xmlns="http://www.w3.org/2000/svg">
<path d="M10.8686 3.13146C11.2646 2.73545 11.4627 2.53744 11.691 2.46325C11.8918 2.39799 12.1082 2.39799 12.309 2.46325C12.5373 2.53744 12.7354 2.73545 13.1314 3.13146L14.5314 4.53146C14.7043 4.70442 14.7908 4.79089 14.8917 4.85273C14.9812 4.90756 15.0787 4.94797 15.1808 4.97246C15.2959 5.00009 15.4182 5.00009 15.6627 5.00009H17.4C17.9601 5.00009 18.2401 5.00009 18.454 5.10909C18.6422 5.20496 18.7951 5.35794 18.891 5.5461C19 5.76001 19 6.04004 19 6.60009V8.33735C19 8.58194 19 8.70424 19.0276 8.81932C19.0521 8.92136 19.0925 9.01891 19.1474 9.10838C19.2092 9.20929 19.2957 9.29577 19.4686 9.46872L20.8686 10.8687C21.2646 11.2647 21.4627 11.4627 21.5368 11.6911C21.6021 11.8919 21.6021 12.1083 21.5368 12.3091C21.4627 12.5374 21.2646 12.7354 20.8686 13.1315L19.4686 14.5315C19.2957 14.7044 19.2092 14.7909 19.1474 14.8918C19.0925 14.9813 19.0521 15.0788 19.0276 15.1809C19 15.2959 19 15.4182 19 15.6628V17.4001C19 17.9601 19 18.2402 18.891 18.4541C18.7951 18.6422 18.6422 18.7952 18.454 18.8911C18.2401 19.0001 17.9601 19.0001 17.4 19.0001H15.6627C15.4182 19.0001 15.2959 19.0001 15.1808 19.0277C15.0787 19.0522 14.9812 19.0926 14.8917 19.1475C14.7908 19.2093 14.7043 19.2958 14.5314 19.4687L13.1314 20.8687C12.7354 21.2647 12.5373 21.4627 12.309 21.5369C12.1082 21.6022 11.8918 21.6022 11.691 21.5369C11.4627 21.4627 11.2646 21.2647 10.8686 20.8687L9.46863 19.4687C9.29568 19.2958 9.2092 19.2093 9.10829 19.1475C9.01881 19.0926 8.92127 19.0522 8.81923 19.0277C8.70415 19.0001 8.58185 19.0001 8.33726 19.0001H6.6C6.03995 19.0001 5.75992 19.0001 5.54601 18.8911C5.35785 18.7952 5.20487 18.6422 5.10899 18.4541C5 18.2402 5 17.9601 5 17.4001V15.6628C5 15.4182 5 15.2959 4.97237 15.1809C4.94787 15.0788 4.90747 14.9813 4.85264 14.8918C4.7908 14.7909 4.70432 14.7044 4.53137 14.5315L3.13137 13.1315C2.73536 12.7354 2.53735 12.5374 2.46316 12.3091C2.3979 12.1083 2.3979 11.8919 2.46316 11.6911C2.53735 11.4627 2.73536 11.2647 3.13137 10.8687L4.53137 9.46872C4.70432 9.29577 4.7908 9.20929 4.85264 9.10838C4.90747 9.01891 4.94787 8.92136 4.97237 8.81932C5 8.70424 5 8.58194 5 8.33735V6.60009C5 6.04004 5 5.76001 5.10899 5.5461C5.20487 5.35794 5.35785 5.20496 5.54601 5.10909C5.75992 5.00009 6.03995 5.00009 6.6 5.00009H8.33726C8.58185 5.00009 8.70415 5.00009 8.81923 4.97246C8.92127 4.94797 9.01881 4.90756 9.10829 4.85273C9.2092 4.79089 9.29568 4.70442 9.46863 4.53146L10.8686 3.13146Z" stroke="#151515" stroke-width="2" stroke-linecap="round" stroke-linejoin="round"/>
</svg>
