<svg width="24" height="24" viewBox="0 0 24 24" fill="none" xmlns="http://www.w3.org/2000/svg">
<path fill-rule="evenodd" clip-rule="evenodd" d="M12 4C10.067 4 8.5 5.567 8.5 7.5C8.5 9.433 10.067 11 12 11C13.933 11 15.5 9.433 15.5 7.5C15.5 5.567 13.933 4 12 4ZM6.5 7.5C6.5 4.46243 8.96243 2 12 2C15.0376 2 17.5 4.46243 17.5 7.5C17.5 10.5376 15.0376 13 12 13C8.96243 13 6.5 10.5376 6.5 7.5ZM12 16C9.16097 16 6.63049 17.3693 5.01384 19.5088C4.91495 19.6397 4.83926 19.74 4.7763 19.8281C4.7285 19.895 4.69588 19.9442 4.67317 19.9814C4.8218 19.9984 5.03357 20 5.42723 20H18.5728C18.9664 20 19.1782 19.9984 19.3268 19.9814C19.3041 19.9442 19.2715 19.895 19.2237 19.8281C19.1607 19.74 19.0851 19.6397 18.9862 19.5088C17.3695 17.3693 14.839 16 12 16ZM3.41814 18.3031C5.39111 15.692 8.49888 14 12 14C15.5011 14 18.6089 15.692 20.5819 18.3031C20.5908 18.3149 20.5997 18.3268 20.6087 18.3387C20.7784 18.563 20.9603 18.8035 21.0902 19.0356C21.2476 19.3165 21.3642 19.6414 21.357 20.0366C21.3511 20.3542 21.2549 20.6516 21.138 20.8864C21.0212 21.1212 20.8419 21.3772 20.592 21.5734C20.2587 21.835 19.8957 21.9276 19.5734 21.9662C19.2905 22.0001 18.9553 22.0001 18.6183 22C18.6032 22 18.588 22 18.5728 22H5.42723C5.41204 22 5.39685 22 5.38166 22C5.04466 22.0001 4.70948 22.0001 4.42664 21.9662C4.10425 21.9276 3.74135 21.835 3.40802 21.5734C3.15808 21.3772 2.97885 21.1212 2.86197 20.8864C2.7451 20.6516 2.64885 20.3542 2.64304 20.0366C2.63582 19.6414 2.75243 19.3165 2.90976 19.0356C3.03974 18.8035 3.22163 18.563 3.39127 18.3387C3.40026 18.3268 3.40923 18.3149 3.41814 18.3031Z" fill="#151515"/>
<path d="M5.01384 19.5088C6.63049 17.3693 9.16097 16 12 16C14.839 16 17.3695 17.3693 18.9862 19.5088C19.0851 19.6397 19.1607 19.74 19.2237 19.8281C19.2715 19.895 19.3041 19.9442 19.3268 19.9814C19.1782 19.9984 18.9664 20 18.5728 20H5.42723C5.03357 20 4.8218 19.9984 4.67317 19.9814C4.69588 19.9442 4.7285 19.895 4.7763 19.8281C4.83926 19.74 4.91495 19.6397 5.01384 19.5088Z" fill="#151515"/>
<path d="M8.5 7.5C8.5 5.567 10.067 4 12 4C13.933 4 15.5 5.567 15.5 7.5C15.5 9.433 13.933 11 12 11C10.067 11 8.5 9.433 8.5 7.5Z" fill="#151515"/>
</svg>
